# xmcd
#
# Track frame offsets: 
#        150
#        18976
#        43473
#        62195
#        84247
#        105203
#        124391
#        142542
#        163957
#        182222
#        206380
#
# Disc length: 3030 seconds
#
# Revision: 0
# Processed by: cddbd v1.5.2PL0 Copyright (c) Steve Scherf et al.
# Submitted via: ExactAudioCopy v0.99pb4
#
DISCID=910bd40b
DTITLE=Fernando Jose Wayra - Soy tu corazon
DYEAR=2008
DGENRE=Native American
TTITLE0=Amor amor
TTITLE1=Duele en el alma
TTITLE2=Por siempre contigo
TTITLE3=Te esperare
TTITLE4=Te amo tanto
TTITLE5=Si tu te vas
TTITLE6=Me duele el corazon
TTITLE7=Soy tu corazon
TTITLE8=Eres mi estrella
TTITLE9=Eres alegria de mi corazon
TTITLE10=Contigo soy feliz
EXTD=
EXTT0=
EXTT1=
EXTT2=
EXTT3=
EXTT4=
EXTT5=
EXTT6=
EXTT7=
EXTT8=
EXTT9=
EXTT10=
PLAYORDER=
